<mxfile host="app.diagrams.net" agent="Mozilla/5.0 (Windows NT 10.0; Win64; x64) AppleWebKit/537.36 (KHTML, like Gecko) Chrome/138.0.0.0 Safari/537.36" version="28.0.9">
  <diagram name="DataFlow" id="eypssSxKy8stbv5kjsSo">
    <mxGraphModel dx="2066" dy="777" grid="1" gridSize="10" guides="1" tooltips="1" connect="1" arrows="1" fold="1" page="1" pageScale="1" pageWidth="1169" pageHeight="827" math="0" shadow="0">
      <root>
        <mxCell id="0" />
        <mxCell id="1" parent="0" />
        <mxCell id="7QVmx60ZroB6r3-ESr-g-1" value="&lt;b&gt;&lt;font style=&quot;font-size: 30px;&quot;&gt;DATA FLOW&amp;nbsp;&lt;/font&gt;&lt;/b&gt; &lt;font style=&quot;font-size: 14px;&quot;&gt;(data Lineage)&lt;/font&gt;" style="text;html=1;align=center;verticalAlign=middle;whiteSpace=wrap;rounded=0;" vertex="1" parent="1">
          <mxGeometry x="80" y="40" width="340" height="40" as="geometry" />
        </mxCell>
        <mxCell id="zL8lkcLN1gQ3_7HzxLHt-76" value="" style="group" vertex="1" connectable="0" parent="1">
          <mxGeometry x="58" y="150" width="1040" height="510" as="geometry" />
        </mxCell>
        <mxCell id="zL8lkcLN1gQ3_7HzxLHt-1" value="" style="rounded=0;whiteSpace=wrap;html=1;fillColor=default;dashed=1;dashPattern=1 1;strokeWidth=2;strokeColor=#808080;" vertex="1" parent="zL8lkcLN1gQ3_7HzxLHt-76">
          <mxGeometry x="20" y="18.89" width="120" height="491.11" as="geometry" />
        </mxCell>
        <mxCell id="zL8lkcLN1gQ3_7HzxLHt-2" value="&lt;font&gt;Sources&lt;/font&gt;" style="text;html=1;align=center;verticalAlign=middle;whiteSpace=wrap;rounded=0;fillColor=default;fontSize=16;fontStyle=0" vertex="1" parent="zL8lkcLN1gQ3_7HzxLHt-76">
          <mxGeometry x="28.88888888888889" width="96.2962962962963" height="28.33333333333333" as="geometry" />
        </mxCell>
        <mxCell id="zL8lkcLN1gQ3_7HzxLHt-6" value="&lt;b&gt;&lt;font style=&quot;font-size: 17px;&quot;&gt;Bronze Layer&lt;/font&gt;&lt;/b&gt;" style="rounded=1;whiteSpace=wrap;html=1;fillColor=#ffcd28;gradientColor=#ffa500;strokeColor=#d79b00;" vertex="1" parent="zL8lkcLN1gQ3_7HzxLHt-76">
          <mxGeometry x="260" y="18.88888888888889" width="211.85185185185185" height="37.77777777777778" as="geometry" />
        </mxCell>
        <mxCell id="zL8lkcLN1gQ3_7HzxLHt-7" value="" style="rounded=1;whiteSpace=wrap;html=1;strokeColor=#FF8000;strokeWidth=1;gradientColor=none;fillStyle=hatch;fillColor=#FFE6CC;perimeterSpacing=1;" vertex="1" parent="zL8lkcLN1gQ3_7HzxLHt-76">
          <mxGeometry x="260" y="66.1111111111111" width="211.85185185185185" height="443.88888888888886" as="geometry" />
        </mxCell>
        <mxCell id="zL8lkcLN1gQ3_7HzxLHt-57" style="edgeStyle=orthogonalEdgeStyle;rounded=0;orthogonalLoop=1;jettySize=auto;html=1;" edge="1" parent="zL8lkcLN1gQ3_7HzxLHt-76" source="zL8lkcLN1gQ3_7HzxLHt-8" target="zL8lkcLN1gQ3_7HzxLHt-32">
          <mxGeometry relative="1" as="geometry" />
        </mxCell>
        <mxCell id="zL8lkcLN1gQ3_7HzxLHt-8" value="crm_sales_details" style="rounded=1;whiteSpace=wrap;html=1;fontSize=15;fillColor=#ffcd28;gradientColor=#ffa500;strokeColor=#d79b00;" vertex="1" parent="zL8lkcLN1gQ3_7HzxLHt-76">
          <mxGeometry x="279.2592592592593" y="94.44444444444443" width="173.33333333333337" height="37.77777777777778" as="geometry" />
        </mxCell>
        <mxCell id="zL8lkcLN1gQ3_7HzxLHt-59" style="edgeStyle=orthogonalEdgeStyle;rounded=0;orthogonalLoop=1;jettySize=auto;html=1;entryX=0;entryY=0.5;entryDx=0;entryDy=0;" edge="1" parent="zL8lkcLN1gQ3_7HzxLHt-76" source="zL8lkcLN1gQ3_7HzxLHt-9" target="zL8lkcLN1gQ3_7HzxLHt-33">
          <mxGeometry relative="1" as="geometry" />
        </mxCell>
        <mxCell id="zL8lkcLN1gQ3_7HzxLHt-9" value="crm_prd_info" style="rounded=1;whiteSpace=wrap;html=1;fontSize=15;fillColor=#ffcd28;gradientColor=#ffa500;strokeColor=#d79b00;" vertex="1" parent="zL8lkcLN1gQ3_7HzxLHt-76">
          <mxGeometry x="279.2592592592593" y="220.99999999999997" width="173.33333333333337" height="37.77777777777778" as="geometry" />
        </mxCell>
        <mxCell id="zL8lkcLN1gQ3_7HzxLHt-58" style="edgeStyle=orthogonalEdgeStyle;rounded=0;orthogonalLoop=1;jettySize=auto;html=1;entryX=0;entryY=0.5;entryDx=0;entryDy=0;" edge="1" parent="zL8lkcLN1gQ3_7HzxLHt-76" source="zL8lkcLN1gQ3_7HzxLHt-10" target="zL8lkcLN1gQ3_7HzxLHt-34">
          <mxGeometry relative="1" as="geometry" />
        </mxCell>
        <mxCell id="zL8lkcLN1gQ3_7HzxLHt-10" value="crm_cust_info" style="rounded=1;whiteSpace=wrap;html=1;fontSize=15;fillColor=#ffcd28;gradientColor=#ffa500;strokeColor=#d79b00;" vertex="1" parent="zL8lkcLN1gQ3_7HzxLHt-76">
          <mxGeometry x="279.2592592592593" y="158.5533333333333" width="173.33333333333337" height="37.77777777777778" as="geometry" />
        </mxCell>
        <mxCell id="zL8lkcLN1gQ3_7HzxLHt-60" style="edgeStyle=orthogonalEdgeStyle;rounded=0;orthogonalLoop=1;jettySize=auto;html=1;entryX=0;entryY=0.5;entryDx=0;entryDy=0;" edge="1" parent="zL8lkcLN1gQ3_7HzxLHt-76" source="zL8lkcLN1gQ3_7HzxLHt-11" target="zL8lkcLN1gQ3_7HzxLHt-35">
          <mxGeometry relative="1" as="geometry" />
        </mxCell>
        <mxCell id="zL8lkcLN1gQ3_7HzxLHt-11" value="erp_cust_az12" style="rounded=1;whiteSpace=wrap;html=1;fontSize=15;fillColor=#ffcd28;gradientColor=#ffa500;strokeColor=#d79b00;" vertex="1" parent="zL8lkcLN1gQ3_7HzxLHt-76">
          <mxGeometry x="279.2592592592593" y="321.1111111111111" width="173.33333333333337" height="37.77777777777778" as="geometry" />
        </mxCell>
        <mxCell id="zL8lkcLN1gQ3_7HzxLHt-61" style="edgeStyle=orthogonalEdgeStyle;rounded=0;orthogonalLoop=1;jettySize=auto;html=1;entryX=0;entryY=0.5;entryDx=0;entryDy=0;" edge="1" parent="zL8lkcLN1gQ3_7HzxLHt-76" source="zL8lkcLN1gQ3_7HzxLHt-12" target="zL8lkcLN1gQ3_7HzxLHt-36">
          <mxGeometry relative="1" as="geometry" />
        </mxCell>
        <mxCell id="zL8lkcLN1gQ3_7HzxLHt-12" value="erp_loc_a101" style="rounded=1;whiteSpace=wrap;html=1;fontSize=15;fillColor=#ffcd28;gradientColor=#ffa500;strokeColor=#d79b00;" vertex="1" parent="zL8lkcLN1gQ3_7HzxLHt-76">
          <mxGeometry x="279.2592592592593" y="377.7777777777777" width="173.33333333333337" height="37.77777777777778" as="geometry" />
        </mxCell>
        <mxCell id="zL8lkcLN1gQ3_7HzxLHt-62" style="edgeStyle=orthogonalEdgeStyle;rounded=0;orthogonalLoop=1;jettySize=auto;html=1;entryX=0;entryY=0.5;entryDx=0;entryDy=0;" edge="1" parent="zL8lkcLN1gQ3_7HzxLHt-76" source="zL8lkcLN1gQ3_7HzxLHt-13" target="zL8lkcLN1gQ3_7HzxLHt-37">
          <mxGeometry relative="1" as="geometry" />
        </mxCell>
        <mxCell id="zL8lkcLN1gQ3_7HzxLHt-13" value="erp_px_cat_gtv2" style="rounded=1;whiteSpace=wrap;html=1;fontSize=15;fillColor=#ffcd28;gradientColor=#ffa500;strokeColor=#d79b00;" vertex="1" parent="zL8lkcLN1gQ3_7HzxLHt-76">
          <mxGeometry x="279.2592592592593" y="434.4444444444444" width="173.33333333333337" height="37.77777777777778" as="geometry" />
        </mxCell>
        <mxCell id="zL8lkcLN1gQ3_7HzxLHt-30" value="&lt;b&gt;&lt;font style=&quot;font-size: 17px;&quot;&gt;Silver Layer&lt;/font&gt;&lt;/b&gt;" style="rounded=1;whiteSpace=wrap;html=1;fillColor=#f5f5f5;gradientColor=#b3b3b3;strokeColor=#666666;" vertex="1" parent="zL8lkcLN1gQ3_7HzxLHt-76">
          <mxGeometry x="548.8888888888889" y="18.88888888888889" width="211.85185185185185" height="37.77777777777778" as="geometry" />
        </mxCell>
        <mxCell id="zL8lkcLN1gQ3_7HzxLHt-31" value="" style="rounded=1;whiteSpace=wrap;html=1;strokeColor=#666666;strokeWidth=1;gradientColor=none;fillStyle=hatch;fillColor=#E6E6E6;perimeterSpacing=1;" vertex="1" parent="zL8lkcLN1gQ3_7HzxLHt-76">
          <mxGeometry x="548.8888888888889" y="66.1111111111111" width="211.85185185185185" height="443.88888888888886" as="geometry" />
        </mxCell>
        <mxCell id="zL8lkcLN1gQ3_7HzxLHt-63" style="edgeStyle=orthogonalEdgeStyle;rounded=0;orthogonalLoop=1;jettySize=auto;html=1;entryX=0;entryY=0.5;entryDx=0;entryDy=0;" edge="1" parent="zL8lkcLN1gQ3_7HzxLHt-76" source="zL8lkcLN1gQ3_7HzxLHt-32" target="zL8lkcLN1gQ3_7HzxLHt-42">
          <mxGeometry relative="1" as="geometry" />
        </mxCell>
        <mxCell id="zL8lkcLN1gQ3_7HzxLHt-32" value="crm_sales_details" style="rounded=1;whiteSpace=wrap;html=1;fontSize=15;fillColor=#f5f5f5;gradientColor=#b3b3b3;strokeColor=#666666;" vertex="1" parent="zL8lkcLN1gQ3_7HzxLHt-76">
          <mxGeometry x="568.1481481481483" y="94.44444444444443" width="173.33333333333337" height="37.77777777777778" as="geometry" />
        </mxCell>
        <mxCell id="zL8lkcLN1gQ3_7HzxLHt-33" value="crm_prd_info" style="rounded=1;whiteSpace=wrap;html=1;fontSize=15;fillColor=#f5f5f5;gradientColor=#b3b3b3;strokeColor=#666666;" vertex="1" parent="zL8lkcLN1gQ3_7HzxLHt-76">
          <mxGeometry x="568.1481481481483" y="220.99999999999997" width="173.33333333333337" height="37.77777777777778" as="geometry" />
        </mxCell>
        <mxCell id="zL8lkcLN1gQ3_7HzxLHt-34" value="crm_cust_info" style="rounded=1;whiteSpace=wrap;html=1;fontSize=15;fillColor=#f5f5f5;gradientColor=#b3b3b3;strokeColor=#666666;" vertex="1" parent="zL8lkcLN1gQ3_7HzxLHt-76">
          <mxGeometry x="568.1481481481483" y="158.5533333333333" width="173.33333333333337" height="37.77777777777778" as="geometry" />
        </mxCell>
        <mxCell id="zL8lkcLN1gQ3_7HzxLHt-35" value="erp_cust_az12" style="rounded=1;whiteSpace=wrap;html=1;fontSize=15;fillColor=#f5f5f5;gradientColor=#b3b3b3;strokeColor=#666666;" vertex="1" parent="zL8lkcLN1gQ3_7HzxLHt-76">
          <mxGeometry x="568.1481481481483" y="321.1111111111111" width="173.33333333333337" height="37.77777777777778" as="geometry" />
        </mxCell>
        <mxCell id="zL8lkcLN1gQ3_7HzxLHt-36" value="erp_loc_a101" style="rounded=1;whiteSpace=wrap;html=1;fontSize=15;fillColor=#f5f5f5;gradientColor=#b3b3b3;strokeColor=#666666;" vertex="1" parent="zL8lkcLN1gQ3_7HzxLHt-76">
          <mxGeometry x="568.1481481481483" y="377.7777777777777" width="173.33333333333337" height="37.77777777777778" as="geometry" />
        </mxCell>
        <mxCell id="zL8lkcLN1gQ3_7HzxLHt-37" value="erp_px_cat_gtv2" style="rounded=1;whiteSpace=wrap;html=1;fontSize=15;fillColor=#f5f5f5;gradientColor=#b3b3b3;strokeColor=#666666;" vertex="1" parent="zL8lkcLN1gQ3_7HzxLHt-76">
          <mxGeometry x="568.1481481481483" y="434.4444444444444" width="173.33333333333337" height="37.77777777777778" as="geometry" />
        </mxCell>
        <mxCell id="zL8lkcLN1gQ3_7HzxLHt-38" value="&lt;b&gt;&lt;font style=&quot;font-size: 17px;&quot;&gt;GoldLayer&lt;/font&gt;&lt;/b&gt;" style="rounded=1;whiteSpace=wrap;html=1;fillColor=#fff2cc;gradientColor=#ffd966;strokeColor=#d6b656;" vertex="1" parent="zL8lkcLN1gQ3_7HzxLHt-76">
          <mxGeometry x="828.1481481481483" y="18.88888888888889" width="211.85185185185185" height="37.77777777777778" as="geometry" />
        </mxCell>
        <mxCell id="zL8lkcLN1gQ3_7HzxLHt-39" value="" style="rounded=1;whiteSpace=wrap;html=1;strokeColor=#d6b656;strokeWidth=1;gradientColor=none;fillStyle=hatch;fillColor=#FFE599;perimeterSpacing=1;" vertex="1" parent="zL8lkcLN1gQ3_7HzxLHt-76">
          <mxGeometry x="828.1481481481483" y="66.1111111111111" width="211.85185185185185" height="443.88888888888886" as="geometry" />
        </mxCell>
        <mxCell id="zL8lkcLN1gQ3_7HzxLHt-42" value="fact_sales" style="rounded=1;whiteSpace=wrap;html=1;fontSize=15;fillColor=#fff2cc;gradientColor=#ffd966;strokeColor=#d6b656;" vertex="1" parent="zL8lkcLN1gQ3_7HzxLHt-76">
          <mxGeometry x="847.4074074074074" y="94.44444444444443" width="173.33333333333337" height="37.77777777777778" as="geometry" />
        </mxCell>
        <mxCell id="zL8lkcLN1gQ3_7HzxLHt-43" value="dim_customers" style="rounded=1;whiteSpace=wrap;html=1;fontSize=15;fillColor=#fff2cc;gradientColor=#ffd966;strokeColor=#d6b656;" vertex="1" parent="zL8lkcLN1gQ3_7HzxLHt-76">
          <mxGeometry x="847.4074074074074" y="236.1111111111111" width="173.33333333333337" height="37.77777777777778" as="geometry" />
        </mxCell>
        <mxCell id="zL8lkcLN1gQ3_7HzxLHt-45" value="dim_products" style="rounded=1;whiteSpace=wrap;html=1;fontSize=15;fillColor=#fff2cc;gradientColor=#ffd966;strokeColor=#d6b656;" vertex="1" parent="zL8lkcLN1gQ3_7HzxLHt-76">
          <mxGeometry x="847.4074074074074" y="377.7777777777777" width="173.33333333333337" height="37.77777777777778" as="geometry" />
        </mxCell>
        <mxCell id="zL8lkcLN1gQ3_7HzxLHt-54" style="edgeStyle=orthogonalEdgeStyle;rounded=0;orthogonalLoop=1;jettySize=auto;html=1;entryX=0;entryY=0.5;entryDx=0;entryDy=0;" edge="1" parent="zL8lkcLN1gQ3_7HzxLHt-76" source="zL8lkcLN1gQ3_7HzxLHt-46" target="zL8lkcLN1gQ3_7HzxLHt-11">
          <mxGeometry relative="1" as="geometry" />
        </mxCell>
        <mxCell id="zL8lkcLN1gQ3_7HzxLHt-55" style="edgeStyle=orthogonalEdgeStyle;rounded=0;orthogonalLoop=1;jettySize=auto;html=1;entryX=0;entryY=0.5;entryDx=0;entryDy=0;" edge="1" parent="zL8lkcLN1gQ3_7HzxLHt-76" source="zL8lkcLN1gQ3_7HzxLHt-46" target="zL8lkcLN1gQ3_7HzxLHt-12">
          <mxGeometry relative="1" as="geometry" />
        </mxCell>
        <mxCell id="zL8lkcLN1gQ3_7HzxLHt-56" style="edgeStyle=orthogonalEdgeStyle;rounded=0;orthogonalLoop=1;jettySize=auto;html=1;entryX=0;entryY=0.5;entryDx=0;entryDy=0;" edge="1" parent="zL8lkcLN1gQ3_7HzxLHt-76" source="zL8lkcLN1gQ3_7HzxLHt-46" target="zL8lkcLN1gQ3_7HzxLHt-13">
          <mxGeometry relative="1" as="geometry" />
        </mxCell>
        <mxCell id="zL8lkcLN1gQ3_7HzxLHt-46" value="&lt;b&gt;&lt;font style=&quot;font-size: 16px;&quot;&gt;ERP&lt;/font&gt;&lt;/b&gt;" style="image;aspect=fixed;html=1;points=[];align=center;fontSize=12;image=img/lib/azure2/general/Folder_Blank.svg;" vertex="1" parent="zL8lkcLN1gQ3_7HzxLHt-76">
          <mxGeometry x="43.81481481481482" y="370.2222222222222" width="64.54603174603174" height="52.38518518518519" as="geometry" />
        </mxCell>
        <mxCell id="zL8lkcLN1gQ3_7HzxLHt-51" style="edgeStyle=orthogonalEdgeStyle;rounded=0;orthogonalLoop=1;jettySize=auto;html=1;entryX=0;entryY=0.5;entryDx=0;entryDy=0;" edge="1" parent="zL8lkcLN1gQ3_7HzxLHt-76" source="zL8lkcLN1gQ3_7HzxLHt-47" target="zL8lkcLN1gQ3_7HzxLHt-10">
          <mxGeometry relative="1" as="geometry" />
        </mxCell>
        <mxCell id="zL8lkcLN1gQ3_7HzxLHt-52" style="edgeStyle=orthogonalEdgeStyle;rounded=0;orthogonalLoop=1;jettySize=auto;html=1;entryX=0;entryY=0.5;entryDx=0;entryDy=0;" edge="1" parent="zL8lkcLN1gQ3_7HzxLHt-76" source="zL8lkcLN1gQ3_7HzxLHt-47" target="zL8lkcLN1gQ3_7HzxLHt-9">
          <mxGeometry relative="1" as="geometry" />
        </mxCell>
        <mxCell id="zL8lkcLN1gQ3_7HzxLHt-53" style="edgeStyle=orthogonalEdgeStyle;rounded=0;orthogonalLoop=1;jettySize=auto;html=1;entryX=0;entryY=0.5;entryDx=0;entryDy=0;" edge="1" parent="zL8lkcLN1gQ3_7HzxLHt-76" source="zL8lkcLN1gQ3_7HzxLHt-47" target="zL8lkcLN1gQ3_7HzxLHt-8">
          <mxGeometry relative="1" as="geometry" />
        </mxCell>
        <mxCell id="zL8lkcLN1gQ3_7HzxLHt-47" value="&lt;b&gt;&lt;font style=&quot;font-size: 15px;&quot;&gt;CRM&lt;/font&gt;&lt;/b&gt;" style="image;aspect=fixed;html=1;points=[];align=center;fontSize=12;image=img/lib/azure2/general/Folder_Blank.svg;" vertex="1" parent="zL8lkcLN1gQ3_7HzxLHt-76">
          <mxGeometry x="50.796296296296305" y="156.5605555555555" width="50.98201058201058" height="41.3749417989418" as="geometry" />
        </mxCell>
        <mxCell id="zL8lkcLN1gQ3_7HzxLHt-48" value="" style="image;aspect=fixed;html=1;points=[];align=center;fontSize=12;image=img/lib/azure2/general/Files.svg;" vertex="1" parent="zL8lkcLN1gQ3_7HzxLHt-76">
          <mxGeometry x="86.66666666666669" y="169.99999999999997" width="42.75940740740741" height="46.772486772486765" as="geometry" />
        </mxCell>
        <mxCell id="zL8lkcLN1gQ3_7HzxLHt-49" value="" style="image;aspect=fixed;html=1;points=[];align=center;fontSize=12;image=img/lib/azure2/general/Files.svg;" vertex="1" parent="zL8lkcLN1gQ3_7HzxLHt-76">
          <mxGeometry x="86.66666666666669" y="391.9444444444444" width="42.75940740740741" height="46.772486772486765" as="geometry" />
        </mxCell>
        <mxCell id="zL8lkcLN1gQ3_7HzxLHt-70" value="" style="endArrow=classic;html=1;rounded=0;entryX=0;entryY=0.5;entryDx=0;entryDy=0;" edge="1" parent="zL8lkcLN1gQ3_7HzxLHt-76" target="zL8lkcLN1gQ3_7HzxLHt-43">
          <mxGeometry width="50" height="50" relative="1" as="geometry">
            <mxPoint x="741.4814814814815" y="179.44444444444443" as="sourcePoint" />
            <mxPoint x="789.6296296296297" y="132.2222222222222" as="targetPoint" />
          </mxGeometry>
        </mxCell>
        <mxCell id="zL8lkcLN1gQ3_7HzxLHt-71" value="" style="endArrow=classic;html=1;rounded=0;" edge="1" parent="zL8lkcLN1gQ3_7HzxLHt-76">
          <mxGeometry width="50" height="50" relative="1" as="geometry">
            <mxPoint x="741.4814814814815" y="340.9444444444444" as="sourcePoint" />
            <mxPoint x="847.4074074074074" y="255.9444444444444" as="targetPoint" />
          </mxGeometry>
        </mxCell>
        <mxCell id="zL8lkcLN1gQ3_7HzxLHt-72" value="" style="endArrow=classic;html=1;rounded=0;" edge="1" parent="zL8lkcLN1gQ3_7HzxLHt-76">
          <mxGeometry width="50" height="50" relative="1" as="geometry">
            <mxPoint x="741.4814814814815" y="236.1111111111111" as="sourcePoint" />
            <mxPoint x="847.4074074074074" y="406.1111111111111" as="targetPoint" />
            <Array as="points" />
          </mxGeometry>
        </mxCell>
        <mxCell id="zL8lkcLN1gQ3_7HzxLHt-73" value="" style="endArrow=classic;html=1;rounded=0;" edge="1" parent="zL8lkcLN1gQ3_7HzxLHt-76">
          <mxGeometry width="50" height="50" relative="1" as="geometry">
            <mxPoint x="741.4814814814815" y="453.33333333333326" as="sourcePoint" />
            <mxPoint x="847.4074074074074" y="406.1111111111111" as="targetPoint" />
          </mxGeometry>
        </mxCell>
        <mxCell id="zL8lkcLN1gQ3_7HzxLHt-75" value="" style="endArrow=classic;html=1;rounded=0;" edge="1" parent="zL8lkcLN1gQ3_7HzxLHt-76">
          <mxGeometry width="50" height="50" relative="1" as="geometry">
            <mxPoint x="741.4814814814815" y="396.66666666666663" as="sourcePoint" />
            <mxPoint x="847.4074074074074" y="264.4444444444444" as="targetPoint" />
          </mxGeometry>
        </mxCell>
      </root>
    </mxGraphModel>
  </diagram>
</mxfile>
